Patient4_TMGait_0pt8_01_right_16_EMG.mot
version=1
nRows=13
nColumns=33
inDegrees=no
endheader
time	1LAddLong	2LGlutMax	3LGlutMed	4LIliopsoas	5LSemiMemb	6LBicFemLong	7LRecFem	8LVastMed	9LVastLat	10LGasMed	11LTibAnt	12lTibPost	13LPeroneusLong	14LSol	15LExtDigLong	16LFlexDigLong	17RAddLong	18RGlutMax	19RGlutMed	20RIliopsoas	21RSemiMemb	22RBicFemLong	23RRecFem	24RVastMed	25RVastLat	26RGasMed	27RTibAnt	28RTibPost	29RPeroneusLong	30RSol	31RExtDigLong	32RFlexDigLong
18.115	-0.020752	-0.28122	-0.16449	-0.013123	0.003357	0.027008	0.2066	0.017548	0.050812	0.050812	-0.075836	-0.04425	-0.11231	-0.056	0.4602	0.032959	0.055389	0.77438	-0.36331	-0.055389	-0.14648	-0.11673	-0.44876	-0.22797	0.066986	0.045319	-0.168	-0.3244	0.242	-0.31433	-0.00885	-0.019379
18.116	-0.017853	-0.25726	-0.11704	0.000458	0.005951	0.025024	0.20767	0.014191	0.063934	0.015564	0.040131	-0.044403	-0.022583	-0.11154	0.45136	0.026245	0.056	0.53772	0.79681	-0.057678	-0.16083	-0.2475	-0.15488	-0.13855	-0.033417	0.072327	0.001831	-0.003662	-0.63767	-0.63721	-0.006256	-0.014801
18.117	-0.010071	-0.24994	-0.092773	0.001373	0.012665	0.016937	0.29266	0.025024	0.072632	-0.001221	0.037689	-0.040741	0.010071	-0.040283	-0.004425	0.018463	0.04364	0.37567	0.92682	0.002899	-0.23727	-0.31799	0.07843	-0.079041	-0.14114	0.013885	0.12253	-0.036926	-1.3014	-0.59006	-0.00412	-0.029602
18.118	-0.014496	-0.25574	-0.053101	0.000153	0.007782	0.028076	0.34134	0.023193	0.080872	0.029297	0.054169	-0.042877	-0.074463	-0.053711	0.084839	0.016479	0.008087	0.3183	0.64697	-0.059204	-0.40253	-0.38788	0.11185	-0.05722	0.045166	-0.084381	0.15533	0.004425	-1.0458	-0.73379	-0.006866	-0.035706
18.119	-0.004425	-0.25711	-0.017242	-0.002899	0.004578	0.011749	0.34485	0.016937	0.06485	0.048981	-0.003052	-0.035248	-0.15778	-0.027771	-0.21378	0.004272	0.005646	0.36453	0.9317	-0.14877	-0.27008	-0.41199	0.1503	0.059814	0.078888	-0.096893	0.021973	-0.4039	-0.021057	-1.0866	-0.009003	-0.039978
18.12	-0.005188	-0.26077	-0.01709	-0.001984	0.00351	0.008087	0.27725	0.021973	0.050964	0.020294	-0.019073	-0.03006	-0.11398	0.065613	-0.16266	0.006104	0.005493	0.36331	0.35431	-0.083313	-0.10941	-0.31921	0.053711	-0.028839	-0.010223	-0.095825	-0.1207	-0.53604	0.25375	-2.1999	-0.009918	-0.061188
18.121	-0.002289	-0.28732	-0.011597	0.002441	-0.005341	0.037537	0.37109	0.025177	0.041504	0.018616	0.068207	-0.022583	-0.094604	0.092316	0.82733	-0.002899	0.064087	0.28458	0.20523	0.026855	-0.087128	-0.24338	0.20783	-0.15106	-0.035858	-0.06012	-0.043793	0.41061	0.26566	-1.8285	-0.009308	-0.061493
18.122	-0.012817	-0.34393	-0.020142	0.018463	-0.009155	0.031433	0.41855	0.019531	0.045319	0.055695	0.25131	-0.020599	-0.15839	0.053558	-0.054321	-0.012207	0.112	0.22507	0.15839	0.079651	-0.014343	-0.10162	0.44128	-0.22278	-0.055542	-0.028992	0.046692	0.040894	0.27451	0.11078	-0.009003	-0.056763
18.123	-0.016479	-0.32883	-0.033417	0.021515	0.00885	0.019531	0.44449	0.016937	0.037079	0.046997	0.38971	-0.024567	-0.14099	0.044708	0.18738	0.009308	0.066071	0.19211	0.24048	0.083313	-0.027313	0.013733	0.48141	-0.30411	-0.005798	-0.009918	0.15045	0.14236	0.033875	0.96725	-0.011292	-0.043335
18.124	-0.016174	-0.3157	-0.010986	-0.003052	0.014801	0.020599	0.38864	0.015411	0.03479	0.033569	0.10803	-0.022125	-0.057831	0.1268	0.15915	0.013275	-0.078735	0.15991	0.38696	0.10742	0.084229	0.29434	0.41473	-0.24063	0.24872	0.034943	0.13077	0.57465	-0.092773	0.93155	-0.007782	-0.030823
18.125	-0.023193	-0.29327	0.004272	0.000153	0.009613	0.014496	0.37796	0.018921	0.053406	0.030212	-0.040436	-0.013428	-0.035553	0.21774	-0.23392	0.001373	-0.14496	0.10468	0.16602	0.15305	0.19913	0.58685	0.44998	-0.024261	0.27802	0.062408	0.17212	0.42541	-0.12894	1.3454	-0.008698	-0.018005
18.126	-0.020294	-0.21942	0.053253	0.035858	0.001526	-0.016022	0.37537	0.009308	0.052643	0.045319	-0.037689	-0.010529	-0.067596	0.18768	-0.079803	-0.00946	-0.10361	0.0354	0.21759	-0.008392	0.31067	0.24994	0.5513	0.006714	0.16998	0.060425	0.20615	0.14267	-0.48599	0.93536	-0.011139	-0.014496
18.127	-0.01358	-0.18112	0.093994	0.023956	0.005798	0.012512	0.31525	0.002594	0.04776	0.063019	0.1001	-0.014954	-0.13001	0.032043	0.10696	0.00885	-0.042114	-0.093231	0.31021	-0.096741	0.18814	0.22293	0.5658	0.001831	0.12192	0.053253	0.30106	0.088501	-0.96298	0.019226	-0.011444	-0.028534
